<svg xmlns="http://www.w3.org/2000/svg" width="32" height="32"><path d="M16 0C7.163 0 0 7.163 0 16s7.163 16 16 16 16-7.163 16-16S24.837 0 16 0zm9.195 11.284c.01.203.014.408.014.614 0 6.27-4.774 13.5-13.5 13.5-2.68 0-5.174-.786-7.274-2.133.37.044.75.066 1.132.066 2.222 0 4.267-.757 5.89-2.03-2.075-.037-3.827-1.41-4.43-3.294.29.055.586.085.892.085.433 0 .852-.057 1.25-.165C7 17.49 5.364 15.57 5.364 13.273v-.06c.64.355 1.37.57 2.15.593-1.274-.85-2.112-2.303-2.112-3.95 0-.868.234-1.683.642-2.384 2.34 2.87 5.836 4.76 9.78 4.958-.082-.347-.124-.71-.124-1.08 0-2.62 2.124-4.745 4.744-4.745 1.365 0 2.598.576 3.463 1.498 1.08-.212 2.095-.607 3.012-1.15-.355 1.108-1.108 2.038-2.087 2.625.96-.115 1.874-.37 2.725-.747-.635.95-1.44 1.788-2.366 2.457z" fill="#ff801f"/></svg>