<svg xmlns="http://www.w3.org/2000/svg" xmlns:xlink="http://www.w3.org/1999/xlink" width="32" height="96" viewBox="0 0 32 96"><svg width="32" height="32" viewBox="0 0 32 32" id="facebook" y="0"><path d="M16 0c8.837 0 16 7.163 16 16 0 8.16-6.107 14.892-14 15.876V20h5.5l.5-4h-6v-2c0-1.105.895-2 2-2h4V8h-4c-3.314 0-6 2.686-6 6v2h-3v4h3v11.876C6.107 30.892 0 24.16 0 16 0 7.163 7.163 0 16 0z" fill="#ff801f"/></svg><svg width="32" height="32" viewBox="0 0 32 32" id="instagram" y="32"><path d="M26.688 0H5.313C2.39 0 0 2.39 0 5.313v21.375C0 29.61 2.39 32 5.313 32h21.375C29.61 32 32 29.61 32 26.69V5.313C32 2.39 29.61 0 26.69 0zM10.244 14h11.513c.218.627.337 1.3.337 2 0 3.36-2.734 6.094-6.094 6.094-3.36 0-6.094-2.734-6.094-6.094 0-.7.12-1.373.338-2zM28 14.002V26c0 1.1-.9 2-2 2H6c-1.1 0-2-.9-2-2V14h3.128c-.145.644-.222 1.313-.222 2 0 5.014 4.08 9.094 9.094 9.094 5.014 0 9.094-4.08 9.094-9.094 0-.687-.077-1.356-.222-2l3.128.002zM28 7c0 .55-.45 1-1 1h-2c-.55 0-1-.45-1-1V5c0-.55.45-1 1-1h2c.55 0 1 .45 1 1v2z" fill="#ff801f"/></svg><svg width="32" height="32" viewBox="0 0 32 32" id="twitter" y="64"><path d="M16 0C7.163 0 0 7.163 0 16s7.163 16 16 16 16-7.163 16-16S24.837 0 16 0zm9.195 11.284c.01.203.014.408.014.614 0 6.27-4.773 13.5-13.5 13.5-2.68 0-5.173-.786-7.273-2.133.37.044.75.066 1.132.066 2.222 0 4.267-.758 5.89-2.03-2.075-.038-3.827-1.41-4.43-3.295.29.055.586.085.892.085.433 0 .852-.058 1.25-.166-2.17-.436-3.806-2.354-3.806-4.652v-.06c.64.355 1.37.57 2.15.593-1.274-.85-2.112-2.303-2.112-3.95 0-.868.234-1.683.642-2.384 2.34 2.87 5.836 4.76 9.78 4.958-.082-.347-.124-.71-.124-1.08 0-2.62 2.124-4.745 4.744-4.745 1.365 0 2.598.576 3.463 1.498 1.08-.212 2.095-.607 3.012-1.15-.354 1.108-1.107 2.038-2.086 2.625.96-.115 1.874-.37 2.725-.747-.635.95-1.44 1.787-2.366 2.456z" fill="#ff801f"/></svg></svg>